<mxfile host="app.diagrams.net" modified="2023-08-21T13:52:24.872Z" agent="Mozilla/5.0 (Macintosh; Intel Mac OS X 10_15_7) AppleWebKit/537.36 (KHTML, like Gecko) Chrome/116.0.0.0 Safari/537.36" etag="mf96566siDImSlD3bzpi" version="21.6.8" type="github">
  <diagram name="Page-1" id="516WukpxJoVM_KZHXkGE">
    <mxGraphModel dx="984" dy="575" grid="1" gridSize="10" guides="1" tooltips="1" connect="1" arrows="1" fold="1" page="1" pageScale="1" pageWidth="827" pageHeight="1169" math="0" shadow="0">
      <root>
        <mxCell id="0" />
        <mxCell id="1" parent="0" />
        <mxCell id="2deGAtWcqy3WrxDyDet4-1" value="Inbound Visibility - Vendor" style="text;html=1;strokeColor=none;fillColor=none;align=center;verticalAlign=middle;whiteSpace=wrap;rounded=0;fontSize=23;fontStyle=5" vertex="1" parent="1">
          <mxGeometry x="185" y="10" width="485" height="20" as="geometry" />
        </mxCell>
        <mxCell id="2deGAtWcqy3WrxDyDet4-2" value="&lt;font style=&quot;font-size: 15px;&quot;&gt;PARTNERS&lt;/font&gt;" style="rounded=0;whiteSpace=wrap;html=1;sketch=1;hachureGap=4;jiggle=2;curveFitting=1;fontFamily=Architects Daughter;fontSource=https%3A%2F%2Ffonts.googleapis.com%2Fcss%3Ffamily%3DArchitects%2BDaughter;fontSize=20;align=right;fillColor=#fff2cc;strokeColor=#d6b656;" vertex="1" parent="1">
          <mxGeometry x="39" y="82.5" width="750" height="167.5" as="geometry" />
        </mxCell>
        <mxCell id="2deGAtWcqy3WrxDyDet4-3" style="edgeStyle=orthogonalEdgeStyle;rounded=0;sketch=1;hachureGap=4;jiggle=2;curveFitting=1;orthogonalLoop=1;jettySize=auto;html=1;fontFamily=Architects Daughter;fontSource=https%3A%2F%2Ffonts.googleapis.com%2Fcss%3Ffamily%3DArchitects%2BDaughter;fontSize=16;" edge="1" parent="1" source="2deGAtWcqy3WrxDyDet4-4" target="2deGAtWcqy3WrxDyDet4-6">
          <mxGeometry relative="1" as="geometry" />
        </mxCell>
        <mxCell id="2deGAtWcqy3WrxDyDet4-4" value="P48 files" style="image;html=1;image=img/lib/clip_art/general/Full_Folder_128x128.png;sketch=1;hachureGap=4;jiggle=2;curveFitting=1;fontFamily=Architects Daughter;fontSource=https%3A%2F%2Ffonts.googleapis.com%2Fcss%3Ffamily%3DArchitects%2BDaughter;fontSize=20;" vertex="1" parent="1">
          <mxGeometry x="70" y="83.5" width="30" height="50" as="geometry" />
        </mxCell>
        <mxCell id="2deGAtWcqy3WrxDyDet4-5" style="edgeStyle=orthogonalEdgeStyle;rounded=0;sketch=1;hachureGap=4;jiggle=2;curveFitting=1;orthogonalLoop=1;jettySize=auto;html=1;entryX=1;entryY=0.5;entryDx=0;entryDy=0;fontFamily=Architects Daughter;fontSource=https%3A%2F%2Ffonts.googleapis.com%2Fcss%3Ffamily%3DArchitects%2BDaughter;fontSize=16;dashed=1;" edge="1" parent="1" source="2deGAtWcqy3WrxDyDet4-6" target="2deGAtWcqy3WrxDyDet4-12">
          <mxGeometry relative="1" as="geometry">
            <Array as="points">
              <mxPoint x="460" y="165" />
              <mxPoint x="460" y="263" />
              <mxPoint x="458" y="263" />
              <mxPoint x="458" y="359" />
            </Array>
          </mxGeometry>
        </mxCell>
        <mxCell id="2deGAtWcqy3WrxDyDet4-6" value="MFT Files server" style="shape=image;html=1;verticalAlign=top;verticalLabelPosition=bottom;labelBackgroundColor=#ffffff;imageAspect=0;aspect=fixed;image=https://cdn2.iconfinder.com/data/icons/whcompare-servers-web-hosting/50/sftp-128.png;hachureGap=4;fontFamily=Architects Daughter;fontSource=https%3A%2F%2Ffonts.googleapis.com%2Fcss%3Ffamily%3DArchitects%2BDaughter;fontSize=20;imageBackground=none;imageBorder=none;sketch=1;curveFitting=1;jiggle=2;" vertex="1" parent="1">
          <mxGeometry x="382" y="120" width="63" height="63" as="geometry" />
        </mxCell>
        <mxCell id="2deGAtWcqy3WrxDyDet4-7" value="&lt;h5 style=&quot;font-size: 15px;&quot;&gt;&lt;span style=&quot;background-color: initial;&quot;&gt;&lt;font style=&quot;font-size: 15px;&quot;&gt;SHELL + CRON&lt;br&gt;&lt;/font&gt;&lt;/span&gt;&lt;span style=&quot;background-color: initial;&quot;&gt;&lt;font style=&quot;font-size: 15px;&quot;&gt;(every 5 min)&lt;/font&gt;&lt;/span&gt;&lt;/h5&gt;" style="rounded=0;whiteSpace=wrap;html=1;sketch=1;hachureGap=4;jiggle=2;curveFitting=1;fontFamily=Architects Daughter;fontSource=https%3A%2F%2Ffonts.googleapis.com%2Fcss%3Ffamily%3DArchitects%2BDaughter;fontSize=20;fillColor=#dae8fc;strokeColor=#6c8ebf;align=right;" vertex="1" parent="1">
          <mxGeometry x="39" y="280" width="750" height="160" as="geometry" />
        </mxCell>
        <mxCell id="2deGAtWcqy3WrxDyDet4-8" value="&lt;font style=&quot;font-size: 15px;&quot;&gt;LOGSTASH&lt;/font&gt;" style="rounded=0;whiteSpace=wrap;html=1;sketch=1;hachureGap=4;jiggle=2;curveFitting=1;fontFamily=Architects Daughter;fontSource=https%3A%2F%2Ffonts.googleapis.com%2Fcss%3Ffamily%3DArchitects%2BDaughter;fontSize=20;fillColor=#d5e8d4;strokeColor=#82b366;align=right;" vertex="1" parent="1">
          <mxGeometry x="39" y="480" width="750" height="160" as="geometry" />
        </mxCell>
        <mxCell id="2deGAtWcqy3WrxDyDet4-9" value="&lt;font style=&quot;font-size: 15px;&quot;&gt;ELASTICSEARCH&lt;/font&gt;" style="rounded=0;whiteSpace=wrap;html=1;sketch=1;hachureGap=4;jiggle=2;curveFitting=1;fontFamily=Architects Daughter;fontSource=https%3A%2F%2Ffonts.googleapis.com%2Fcss%3Ffamily%3DArchitects%2BDaughter;fontSize=20;fillColor=#ffe6cc;strokeColor=#d79b00;align=right;" vertex="1" parent="1">
          <mxGeometry x="34" y="680" width="750" height="470" as="geometry" />
        </mxCell>
        <mxCell id="2deGAtWcqy3WrxDyDet4-10" style="edgeStyle=orthogonalEdgeStyle;rounded=0;sketch=1;hachureGap=4;jiggle=2;curveFitting=1;orthogonalLoop=1;jettySize=auto;html=1;fontFamily=Architects Daughter;fontSource=https%3A%2F%2Ffonts.googleapis.com%2Fcss%3Ffamily%3DArchitects%2BDaughter;fontSize=16;" edge="1" parent="1" source="2deGAtWcqy3WrxDyDet4-12" target="2deGAtWcqy3WrxDyDet4-6">
          <mxGeometry relative="1" as="geometry" />
        </mxCell>
        <mxCell id="2deGAtWcqy3WrxDyDet4-11" style="edgeStyle=orthogonalEdgeStyle;rounded=0;sketch=1;hachureGap=4;jiggle=2;curveFitting=1;orthogonalLoop=1;jettySize=auto;html=1;entryX=0.25;entryY=0;entryDx=0;entryDy=0;fontFamily=Architects Daughter;fontSource=https%3A%2F%2Ffonts.googleapis.com%2Fcss%3Ffamily%3DArchitects%2BDaughter;fontSize=16;" edge="1" parent="1" source="2deGAtWcqy3WrxDyDet4-12" target="2deGAtWcqy3WrxDyDet4-19">
          <mxGeometry relative="1" as="geometry" />
        </mxCell>
        <mxCell id="2deGAtWcqy3WrxDyDet4-12" value="" style="shape=image;html=1;verticalAlign=top;verticalLabelPosition=bottom;labelBackgroundColor=#ffffff;imageAspect=0;aspect=fixed;image=https://cdn2.iconfinder.com/data/icons/atrous/512/command_line_prompt_shell-128.png;sketch=1;hachureGap=4;jiggle=2;curveFitting=1;fontFamily=Architects Daughter;fontSource=https%3A%2F%2Ffonts.googleapis.com%2Fcss%3Ffamily%3DArchitects%2BDaughter;fontSize=20;" vertex="1" parent="1">
          <mxGeometry x="380" y="330" width="58" height="58" as="geometry" />
        </mxCell>
        <mxCell id="2deGAtWcqy3WrxDyDet4-13" value="" style="html=1;verticalLabelPosition=bottom;align=center;labelBackgroundColor=#ffffff;verticalAlign=top;strokeWidth=2;strokeColor=#0080F0;shadow=0;dashed=0;shape=mxgraph.ios7.icons.alarm_clock;sketch=1;hachureGap=4;jiggle=2;curveFitting=1;fontFamily=Architects Daughter;fontSource=https%3A%2F%2Ffonts.googleapis.com%2Fcss%3Ffamily%3DArchitects%2BDaughter;fontSize=20;" vertex="1" parent="1">
          <mxGeometry x="380" y="310" width="20" height="20" as="geometry" />
        </mxCell>
        <mxCell id="2deGAtWcqy3WrxDyDet4-14" value="" style="whiteSpace=wrap;html=1;shape=mxgraph.basic.document;sketch=1;hachureGap=4;jiggle=2;curveFitting=1;fontFamily=Architects Daughter;fontSource=https%3A%2F%2Ffonts.googleapis.com%2Fcss%3Ffamily%3DArchitects%2BDaughter;fontSize=20;" vertex="1" parent="1">
          <mxGeometry x="270" y="103.5" width="20" height="30" as="geometry" />
        </mxCell>
        <mxCell id="2deGAtWcqy3WrxDyDet4-15" value="" style="whiteSpace=wrap;html=1;shape=mxgraph.basic.document;sketch=1;hachureGap=4;jiggle=2;curveFitting=1;fontFamily=Architects Daughter;fontSource=https%3A%2F%2Ffonts.googleapis.com%2Fcss%3Ffamily%3DArchitects%2BDaughter;fontSize=20;" vertex="1" parent="1">
          <mxGeometry x="130" y="320" width="20" height="30" as="geometry" />
        </mxCell>
        <mxCell id="2deGAtWcqy3WrxDyDet4-16" value="&lt;font style=&quot;font-size: 12px;&quot;&gt;Bash shell script that automates the process of transferring files from a remote server to a local directory.&amp;nbsp; &amp;nbsp;&lt;/font&gt;" style="text;html=1;strokeColor=none;fillColor=none;align=center;verticalAlign=middle;whiteSpace=wrap;rounded=0;fontSize=20;fontFamily=Architects Daughter;" vertex="1" parent="1">
          <mxGeometry x="81" y="400" width="670" height="30" as="geometry" />
        </mxCell>
        <mxCell id="2deGAtWcqy3WrxDyDet4-17" value="" style="shape=image;verticalLabelPosition=bottom;labelBackgroundColor=default;verticalAlign=top;aspect=fixed;imageAspect=0;image=data:image/svg+xml,PHN2ZyB4bWxucz0iaHR0cDovL3d3dy53My5vcmcvMjAwMC9zdmciIGhlaWdodD0iNDhweCIgd2lkdGg9IjQ4cHgiIHZpZXdCb3g9IjAgMCA0OCA0OCI+PHBhdGggZD0iTTI1LDI2SDdWNWg2YzYuNjI3LDAsMTIsNS4zNzMsMTIsMTJWMjZ6IiBmaWxsPSIjZmJjMDJkIi8+PHJlY3QgZmlsbD0iIzRkYjZhYyIgeT0iMjUiIHg9IjI0IiBoZWlnaHQ9IjE4IiB3aWR0aD0iMTciLz48cmVjdCBmaWxsPSIjMjZhNjlhIiB5PSIyNSIgeD0iMjQiIGhlaWdodD0iMTgiIHdpZHRoPSI1Ii8+PHBhdGggZD0iTTI1LDI1SDd2MWMwLDkuMzg5LDcuNjExLDE3LDE3LDE3aDFWMjV6IiBmaWxsPSIjNDI0MjQyIi8+PC9zdmc+;" vertex="1" parent="1">
          <mxGeometry x="720" y="500" width="48" height="48" as="geometry" />
        </mxCell>
        <mxCell id="2deGAtWcqy3WrxDyDet4-18" style="edgeStyle=orthogonalEdgeStyle;rounded=0;sketch=1;hachureGap=4;jiggle=2;curveFitting=1;orthogonalLoop=1;jettySize=auto;html=1;entryX=0;entryY=0.5;entryDx=0;entryDy=0;fontFamily=Architects Daughter;fontSource=https%3A%2F%2Ffonts.googleapis.com%2Fcss%3Ffamily%3DArchitects%2BDaughter;fontSize=16;" edge="1" parent="1" source="2deGAtWcqy3WrxDyDet4-19" target="2deGAtWcqy3WrxDyDet4-22">
          <mxGeometry relative="1" as="geometry" />
        </mxCell>
        <mxCell id="2deGAtWcqy3WrxDyDet4-19" value="&lt;font style=&quot;font-size: 12px;&quot;&gt;Logstash&lt;br&gt;Input directory&lt;/font&gt;" style="rounded=0;whiteSpace=wrap;html=1;sketch=1;hachureGap=4;jiggle=2;curveFitting=1;fontFamily=Architects Daughter;fontSource=https%3A%2F%2Ffonts.googleapis.com%2Fcss%3Ffamily%3DArchitects%2BDaughter;fontSize=20;fillColor=#e1d5e7;strokeColor=#9673a6;" vertex="1" parent="1">
          <mxGeometry x="60" y="530" width="120" height="60" as="geometry" />
        </mxCell>
        <mxCell id="2deGAtWcqy3WrxDyDet4-20" style="edgeStyle=orthogonalEdgeStyle;rounded=0;sketch=1;hachureGap=4;jiggle=2;curveFitting=1;orthogonalLoop=1;jettySize=auto;html=1;entryX=0;entryY=0.5;entryDx=0;entryDy=0;fontFamily=Architects Daughter;fontSource=https%3A%2F%2Ffonts.googleapis.com%2Fcss%3Ffamily%3DArchitects%2BDaughter;fontSize=16;" edge="1" parent="1" source="2deGAtWcqy3WrxDyDet4-22" target="2deGAtWcqy3WrxDyDet4-24">
          <mxGeometry relative="1" as="geometry" />
        </mxCell>
        <mxCell id="2deGAtWcqy3WrxDyDet4-21" style="edgeStyle=orthogonalEdgeStyle;rounded=0;sketch=1;hachureGap=4;jiggle=2;curveFitting=1;orthogonalLoop=1;jettySize=auto;html=1;entryX=1;entryY=0.25;entryDx=0;entryDy=0;fontFamily=Architects Daughter;fontSource=https%3A%2F%2Ffonts.googleapis.com%2Fcss%3Ffamily%3DArchitects%2BDaughter;fontSize=16;dashed=1;" edge="1" parent="1" source="2deGAtWcqy3WrxDyDet4-22" target="2deGAtWcqy3WrxDyDet4-19">
          <mxGeometry relative="1" as="geometry">
            <Array as="points">
              <mxPoint x="215" y="540" />
              <mxPoint x="215" y="545" />
            </Array>
          </mxGeometry>
        </mxCell>
        <mxCell id="2deGAtWcqy3WrxDyDet4-22" value="&lt;font style=&quot;font-size: 12px;&quot;&gt;&amp;nbsp;Logstash&lt;br&gt;Pipeline&lt;/font&gt;" style="rounded=0;whiteSpace=wrap;html=1;sketch=1;hachureGap=4;jiggle=2;curveFitting=1;fontFamily=Architects Daughter;fontSource=https%3A%2F%2Ffonts.googleapis.com%2Fcss%3Ffamily%3DArchitects%2BDaughter;fontSize=20;fillColor=#e1d5e7;strokeColor=#9673a6;align=center;" vertex="1" parent="1">
          <mxGeometry x="250" y="530" width="120" height="60" as="geometry" />
        </mxCell>
        <mxCell id="2deGAtWcqy3WrxDyDet4-23" style="edgeStyle=orthogonalEdgeStyle;rounded=0;sketch=1;hachureGap=4;jiggle=2;curveFitting=1;orthogonalLoop=1;jettySize=auto;html=1;entryX=1;entryY=0.5;entryDx=0;entryDy=0;fontFamily=Architects Daughter;fontSource=https%3A%2F%2Ffonts.googleapis.com%2Fcss%3Ffamily%3DArchitects%2BDaughter;fontSize=16;" edge="1" parent="1" source="2deGAtWcqy3WrxDyDet4-24" target="2deGAtWcqy3WrxDyDet4-27">
          <mxGeometry relative="1" as="geometry">
            <Array as="points">
              <mxPoint x="640" y="500" />
              <mxPoint x="640" y="530" />
            </Array>
          </mxGeometry>
        </mxCell>
        <mxCell id="2deGAtWcqy3WrxDyDet4-24" value="&lt;font style=&quot;font-size: 11px;&quot;&gt;EMEA_inbound_visibility_vendor&lt;/font&gt;" style="rounded=1;whiteSpace=wrap;html=1;sketch=1;hachureGap=4;jiggle=2;curveFitting=1;fontFamily=Architects Daughter;fontSource=https%3A%2F%2Ffonts.googleapis.com%2Fcss%3Ffamily%3DArchitects%2BDaughter;fontSize=20;fillColor=#f8cecc;strokeColor=#b85450;" vertex="1" parent="1">
          <mxGeometry x="460" y="490" width="160" height="20" as="geometry" />
        </mxCell>
        <mxCell id="2deGAtWcqy3WrxDyDet4-25" value="" style="whiteSpace=wrap;html=1;shape=mxgraph.basic.document;sketch=1;hachureGap=4;jiggle=2;curveFitting=1;fontFamily=Architects Daughter;fontSource=https%3A%2F%2Ffonts.googleapis.com%2Fcss%3Ffamily%3DArchitects%2BDaughter;fontSize=20;" vertex="1" parent="1">
          <mxGeometry x="470" y="240" width="20" height="30" as="geometry" />
        </mxCell>
        <mxCell id="2deGAtWcqy3WrxDyDet4-26" style="edgeStyle=orthogonalEdgeStyle;rounded=0;sketch=1;hachureGap=4;jiggle=2;curveFitting=1;orthogonalLoop=1;jettySize=auto;html=1;entryX=0;entryY=0.75;entryDx=0;entryDy=0;fontFamily=Architects Daughter;fontSource=https%3A%2F%2Ffonts.googleapis.com%2Fcss%3Ffamily%3DArchitects%2BDaughter;fontSize=16;" edge="1" parent="1" source="2deGAtWcqy3WrxDyDet4-27" target="2deGAtWcqy3WrxDyDet4-29">
          <mxGeometry relative="1" as="geometry">
            <Array as="points">
              <mxPoint x="450" y="530" />
              <mxPoint x="450" y="565" />
            </Array>
          </mxGeometry>
        </mxCell>
        <mxCell id="2deGAtWcqy3WrxDyDet4-27" value="&lt;font style=&quot;font-size: 11px;&quot;&gt;0_input.conf&lt;/font&gt;" style="rounded=1;whiteSpace=wrap;html=1;sketch=1;hachureGap=4;jiggle=2;curveFitting=1;fontFamily=Architects Daughter;fontSource=https%3A%2F%2Ffonts.googleapis.com%2Fcss%3Ffamily%3DArchitects%2BDaughter;fontSize=20;fillColor=#f8cecc;strokeColor=#b85450;" vertex="1" parent="1">
          <mxGeometry x="460" y="520" width="160" height="20" as="geometry" />
        </mxCell>
        <mxCell id="2deGAtWcqy3WrxDyDet4-28" style="edgeStyle=orthogonalEdgeStyle;rounded=0;sketch=1;hachureGap=4;jiggle=2;curveFitting=1;orthogonalLoop=1;jettySize=auto;html=1;entryX=1;entryY=0.5;entryDx=0;entryDy=0;fontFamily=Architects Daughter;fontSource=https%3A%2F%2Ffonts.googleapis.com%2Fcss%3Ffamily%3DArchitects%2BDaughter;fontSize=16;" edge="1" parent="1" source="2deGAtWcqy3WrxDyDet4-29" target="2deGAtWcqy3WrxDyDet4-31">
          <mxGeometry relative="1" as="geometry">
            <Array as="points">
              <mxPoint x="660" y="560" />
              <mxPoint x="660" y="590" />
              <mxPoint x="650" y="590" />
              <mxPoint x="650" y="595" />
            </Array>
          </mxGeometry>
        </mxCell>
        <mxCell id="2deGAtWcqy3WrxDyDet4-29" value="&lt;font style=&quot;font-size: 11px;&quot;&gt;1_filter_1_metadata.conf&lt;/font&gt;" style="rounded=1;whiteSpace=wrap;html=1;sketch=1;hachureGap=4;jiggle=2;curveFitting=1;fontFamily=Architects Daughter;fontSource=https%3A%2F%2Ffonts.googleapis.com%2Fcss%3Ffamily%3DArchitects%2BDaughter;fontSize=20;fillColor=#f8cecc;strokeColor=#b85450;" vertex="1" parent="1">
          <mxGeometry x="460" y="550" width="160" height="20" as="geometry" />
        </mxCell>
        <mxCell id="2deGAtWcqy3WrxDyDet4-30" style="edgeStyle=orthogonalEdgeStyle;rounded=0;sketch=1;hachureGap=4;jiggle=2;curveFitting=1;orthogonalLoop=1;jettySize=auto;html=1;entryX=0;entryY=0.25;entryDx=0;entryDy=0;fontFamily=Architects Daughter;fontSource=https%3A%2F%2Ffonts.googleapis.com%2Fcss%3Ffamily%3DArchitects%2BDaughter;fontSize=16;" edge="1" parent="1" source="2deGAtWcqy3WrxDyDet4-31" target="2deGAtWcqy3WrxDyDet4-33">
          <mxGeometry relative="1" as="geometry">
            <Array as="points">
              <mxPoint x="420" y="595" />
              <mxPoint x="420" y="625" />
              <mxPoint x="440" y="625" />
              <mxPoint x="440" y="615" />
            </Array>
          </mxGeometry>
        </mxCell>
        <mxCell id="2deGAtWcqy3WrxDyDet4-31" value="&lt;font style=&quot;font-size: 11px;&quot;&gt;1_filter_2_parse_content.conf&lt;/font&gt;" style="rounded=1;whiteSpace=wrap;html=1;sketch=1;hachureGap=4;jiggle=2;curveFitting=1;fontFamily=Architects Daughter;fontSource=https%3A%2F%2Ffonts.googleapis.com%2Fcss%3Ffamily%3DArchitects%2BDaughter;fontSize=20;fillColor=#f8cecc;strokeColor=#b85450;" vertex="1" parent="1">
          <mxGeometry x="455" y="580" width="170" height="20" as="geometry" />
        </mxCell>
        <mxCell id="2deGAtWcqy3WrxDyDet4-32" style="edgeStyle=orthogonalEdgeStyle;rounded=0;sketch=1;hachureGap=4;jiggle=2;curveFitting=1;orthogonalLoop=1;jettySize=auto;html=1;fontFamily=Architects Daughter;fontSource=https%3A%2F%2Ffonts.googleapis.com%2Fcss%3Ffamily%3DArchitects%2BDaughter;fontSize=16;" edge="1" parent="1" source="2deGAtWcqy3WrxDyDet4-33" target="2deGAtWcqy3WrxDyDet4-37">
          <mxGeometry relative="1" as="geometry" />
        </mxCell>
        <mxCell id="2deGAtWcqy3WrxDyDet4-33" value="&lt;font style=&quot;font-size: 11px;&quot;&gt;2_output.conf&lt;/font&gt;" style="rounded=1;whiteSpace=wrap;html=1;sketch=1;hachureGap=4;jiggle=2;curveFitting=1;fontFamily=Architects Daughter;fontSource=https%3A%2F%2Ffonts.googleapis.com%2Fcss%3Ffamily%3DArchitects%2BDaughter;fontSize=20;fillColor=#f8cecc;strokeColor=#b85450;" vertex="1" parent="1">
          <mxGeometry x="460" y="610" width="160" height="20" as="geometry" />
        </mxCell>
        <mxCell id="2deGAtWcqy3WrxDyDet4-34" value="" style="whiteSpace=wrap;html=1;shape=mxgraph.basic.document;sketch=1;hachureGap=4;jiggle=2;curveFitting=1;fontFamily=Architects Daughter;fontSource=https%3A%2F%2Ffonts.googleapis.com%2Fcss%3Ffamily%3DArchitects%2BDaughter;fontSize=20;" vertex="1" parent="1">
          <mxGeometry x="210" y="570" width="20" height="30" as="geometry" />
        </mxCell>
        <mxCell id="2deGAtWcqy3WrxDyDet4-35" value="" style="shape=image;verticalLabelPosition=bottom;labelBackgroundColor=default;verticalAlign=top;aspect=fixed;imageAspect=0;image=data:image/svg+xml,PHN2ZyB4bWxucz0iaHR0cDovL3d3dy53My5vcmcvMjAwMC9zdmciIGhlaWdodD0iNDhweCIgd2lkdGg9IjQ4cHgiIHZpZXdCb3g9IjAgMCA0OCA0OCI+PHBhdGggZD0iTTM3LDI0YzAtMy4zMTQtMi42ODYtNi02LTZINS45MThDNS4zMjMsMTkuODk0LDUsMjEuOTA5LDUsMjRzMC4zMjMsNC4xMDYsMC45MTgsNkgzMSBDMzQuMzE0LDMwLDM3LDI3LjMxNCwzNywyNHoiIGZpbGw9IiMyOWI2ZjYiLz48cGF0aCBkPSJNMjUsNDRjNi41MjQsMCwxMi4zMDUtMy4xMzMsMTUuOTU0LTcuOTY4QzM4LjgzNSwzNC4xNTEsMzYuMDU1LDMzLDMzLDMzSDcuMTU3IEMxMC40NTMsMzkuNTIsMTcuMTk2LDQ0LDI1LDQ0eiIgZmlsbD0iIzRkYjZhYyIvPjxwYXRoIGQ9Ik0yNSw0QzE3LjE5NSw0LDEwLjQ1Myw4LjQ4LDcuMTU3LDE1SDMzYzMuMDUxLDAsNS44MjgtMS4xNDgsNy45NDYtMy4wMjQgQzM3LjI5OSw3LjEzOCwzMS41MjUsNCwyNSw0eiIgZmlsbD0iI2ZmY2EyOCIvPjxwYXRoIGQ9Ik0yMi4wNzMsMTVjLTEuNTEzLTMuMzY3LTMuODQ1LTYuMjg4LTYuNzQ3LTguNTAxQzExLjgxNyw4LjQ0Myw4Ljk1NywxMS40MTIsNy4xNDMsMTVIMjIuMDczeiIgZmlsbD0iI2Y5YTgyNSIvPjxwYXRoIGQ9Ik0xNS4zMjYsNDEuNTAxYzIuOTAyLTIuMjEzLDUuMjMzLTUuMTM0LDYuNzQ3LTguNTAxSDcuMTQzIEM4Ljk1NywzNi41ODgsMTEuODE3LDM5LjU1NywxNS4zMjYsNDEuNTAxeiIgZmlsbD0iIzAwOTY4OCIvPjxwYXRoIGQ9Ik01LjkyOCwxOEM1LjMzMiwxOS44OTUsNSwyMS45MDcsNSwyNHMwLjMzMiw0LjEwNSwwLjkyOCw2aDE3LjIzNEMyMy43MDMsMjguMDkyLDI0LDI2LjA4MSwyNCwyNCBzLTAuMjk3LTQuMDkyLTAuODM3LTZINS45Mjh6IiBmaWxsPSIjMjEyMTIxIi8+PC9zdmc+;" vertex="1" parent="1">
          <mxGeometry x="710" y="840" width="58" height="58" as="geometry" />
        </mxCell>
        <mxCell id="2deGAtWcqy3WrxDyDet4-36" style="edgeStyle=orthogonalEdgeStyle;rounded=0;sketch=1;hachureGap=4;jiggle=2;curveFitting=1;orthogonalLoop=1;jettySize=auto;html=1;fontFamily=Architects Daughter;fontSource=https%3A%2F%2Ffonts.googleapis.com%2Fcss%3Ffamily%3DArchitects%2BDaughter;fontSize=16;" edge="1" parent="1" source="2deGAtWcqy3WrxDyDet4-37" target="2deGAtWcqy3WrxDyDet4-56">
          <mxGeometry relative="1" as="geometry" />
        </mxCell>
        <mxCell id="2deGAtWcqy3WrxDyDet4-37" value="&lt;font style=&quot;font-size: 10px;&quot;&gt;&lt;span style=&quot;border-color: var(--border-color); font-family: Helvetica;&quot;&gt;&lt;b&gt;Ingest pipeline&lt;/b&gt;&lt;br&gt;EMEA_inbound_visibility_vendor&lt;br&gt;&lt;/span&gt;&lt;font style=&quot;font-size: 10px;&quot; face=&quot;Helvetica&quot;&gt;neo.inbound-&lt;/font&gt;vendor&lt;font style=&quot;font-size: 10px;&quot; face=&quot;Helvetica&quot;&gt;.datas.raw&lt;/font&gt;&lt;/font&gt;" style="sketch=0;outlineConnect=0;fontColor=#232F3E;gradientColor=none;fillColor=#4D27AA;strokeColor=none;dashed=0;verticalLabelPosition=bottom;verticalAlign=top;align=center;html=1;fontSize=12;fontStyle=0;aspect=fixed;pointerEvents=1;shape=mxgraph.aws4.redshift_streaming_ingestion;hachureGap=4;jiggle=2;curveFitting=1;fontFamily=Architects Daughter;fontSource=https%3A%2F%2Ffonts.googleapis.com%2Fcss%3Ffamily%3DArchitects%2BDaughter;" vertex="1" parent="1">
          <mxGeometry x="414.49" y="700" width="45.51" height="50" as="geometry" />
        </mxCell>
        <mxCell id="2deGAtWcqy3WrxDyDet4-38" style="edgeStyle=orthogonalEdgeStyle;rounded=0;sketch=1;hachureGap=4;jiggle=2;curveFitting=1;orthogonalLoop=1;jettySize=auto;html=1;fontFamily=Architects Daughter;fontSource=https%3A%2F%2Ffonts.googleapis.com%2Fcss%3Ffamily%3DArchitects%2BDaughter;fontSize=16;" edge="1" parent="1" source="2deGAtWcqy3WrxDyDet4-39" target="2deGAtWcqy3WrxDyDet4-60">
          <mxGeometry relative="1" as="geometry">
            <Array as="points">
              <mxPoint x="490" y="1107" />
              <mxPoint x="490" y="1050" />
            </Array>
          </mxGeometry>
        </mxCell>
        <mxCell id="2deGAtWcqy3WrxDyDet4-39" value="neo.inbound-vendor.datas.raw-03-reconciliation.key" style="sketch=0;outlineConnect=0;fillColor=#fa6800;strokeColor=#C73500;dashed=0;verticalLabelPosition=bottom;verticalAlign=top;align=center;html=1;fontSize=12;fontStyle=0;aspect=fixed;pointerEvents=1;shape=mxgraph.aws4.redshift_streaming_ingestion;fontColor=#000000;" vertex="1" parent="1">
          <mxGeometry x="479.99999999999994" y="1090" width="30.95" height="34" as="geometry" />
        </mxCell>
        <mxCell id="2deGAtWcqy3WrxDyDet4-40" style="edgeStyle=orthogonalEdgeStyle;rounded=0;sketch=1;hachureGap=4;jiggle=2;curveFitting=1;orthogonalLoop=1;jettySize=auto;html=1;fontFamily=Architects Daughter;fontSource=https%3A%2F%2Ffonts.googleapis.com%2Fcss%3Ffamily%3DArchitects%2BDaughter;fontSize=16;" edge="1" parent="1" source="2deGAtWcqy3WrxDyDet4-41" target="2deGAtWcqy3WrxDyDet4-39">
          <mxGeometry relative="1" as="geometry" />
        </mxCell>
        <mxCell id="2deGAtWcqy3WrxDyDet4-41" value="neo.inbound-vendor.datas.raw-02g-normalize.convert" style="sketch=0;outlineConnect=0;fillColor=#fa6800;strokeColor=#C73500;dashed=0;verticalLabelPosition=bottom;verticalAlign=top;align=center;html=1;fontSize=12;fontStyle=0;aspect=fixed;pointerEvents=1;shape=mxgraph.aws4.redshift_streaming_ingestion;fontColor=#000000;" vertex="1" parent="1">
          <mxGeometry x="159.99999999999994" y="1090" width="30.95" height="34" as="geometry" />
        </mxCell>
        <mxCell id="2deGAtWcqy3WrxDyDet4-42" style="edgeStyle=orthogonalEdgeStyle;rounded=0;sketch=1;hachureGap=4;jiggle=2;curveFitting=1;orthogonalLoop=1;jettySize=auto;html=1;fontFamily=Architects Daughter;fontSource=https%3A%2F%2Ffonts.googleapis.com%2Fcss%3Ffamily%3DArchitects%2BDaughter;fontSize=16;" edge="1" parent="1" source="2deGAtWcqy3WrxDyDet4-43" target="2deGAtWcqy3WrxDyDet4-41">
          <mxGeometry relative="1" as="geometry">
            <Array as="points">
              <mxPoint x="130" y="1047" />
              <mxPoint x="130" y="1107" />
            </Array>
          </mxGeometry>
        </mxCell>
        <mxCell id="2deGAtWcqy3WrxDyDet4-43" value="neo.inbound-vendor.datas.raw-02d-normalize.content" style="sketch=0;outlineConnect=0;fillColor=#fa6800;strokeColor=#C73500;dashed=0;verticalLabelPosition=bottom;verticalAlign=top;align=center;html=1;fontSize=12;fontStyle=0;aspect=fixed;pointerEvents=1;shape=mxgraph.aws4.redshift_streaming_ingestion;fontColor=#000000;" vertex="1" parent="1">
          <mxGeometry x="159.9999999999999" y="1030" width="30.95" height="34" as="geometry" />
        </mxCell>
        <mxCell id="2deGAtWcqy3WrxDyDet4-44" style="edgeStyle=orthogonalEdgeStyle;rounded=0;sketch=1;hachureGap=4;jiggle=2;curveFitting=1;orthogonalLoop=1;jettySize=auto;html=1;fontFamily=Architects Daughter;fontSource=https%3A%2F%2Ffonts.googleapis.com%2Fcss%3Ffamily%3DArchitects%2BDaughter;fontSize=16;" edge="1" parent="1" source="2deGAtWcqy3WrxDyDet4-45" target="2deGAtWcqy3WrxDyDet4-43">
          <mxGeometry relative="1" as="geometry">
            <Array as="points">
              <mxPoint x="220" y="991" />
              <mxPoint x="220" y="1047" />
            </Array>
          </mxGeometry>
        </mxCell>
        <mxCell id="2deGAtWcqy3WrxDyDet4-45" value="neo.inbound-vendor.datas.raw-02c-normalize.dates" style="sketch=0;outlineConnect=0;fillColor=#fa6800;strokeColor=#C73500;dashed=0;verticalLabelPosition=bottom;verticalAlign=top;align=center;html=1;fontSize=12;fontStyle=0;aspect=fixed;pointerEvents=1;shape=mxgraph.aws4.redshift_streaming_ingestion;fontColor=#000000;" vertex="1" parent="1">
          <mxGeometry x="159.99999999999994" y="974" width="30.95" height="34" as="geometry" />
        </mxCell>
        <mxCell id="2deGAtWcqy3WrxDyDet4-46" style="edgeStyle=orthogonalEdgeStyle;rounded=0;sketch=1;hachureGap=4;jiggle=2;curveFitting=1;orthogonalLoop=1;jettySize=auto;html=1;fontFamily=Architects Daughter;fontSource=https%3A%2F%2Ffonts.googleapis.com%2Fcss%3Ffamily%3DArchitects%2BDaughter;fontSize=16;" edge="1" parent="1" source="2deGAtWcqy3WrxDyDet4-47" target="2deGAtWcqy3WrxDyDet4-45">
          <mxGeometry relative="1" as="geometry">
            <Array as="points">
              <mxPoint x="130" y="940" />
              <mxPoint x="130" y="991" />
            </Array>
          </mxGeometry>
        </mxCell>
        <mxCell id="2deGAtWcqy3WrxDyDet4-47" value="neo.inbound-vendor.datas.raw-02b-normalize.uppercase" style="sketch=0;outlineConnect=0;fillColor=#fa6800;strokeColor=#C73500;dashed=0;verticalLabelPosition=bottom;verticalAlign=top;align=center;html=1;fontSize=12;fontStyle=0;aspect=fixed;pointerEvents=1;shape=mxgraph.aws4.redshift_streaming_ingestion;fontColor=#000000;" vertex="1" parent="1">
          <mxGeometry x="169.99999999999994" y="924" width="30.95" height="34" as="geometry" />
        </mxCell>
        <mxCell id="2deGAtWcqy3WrxDyDet4-48" style="edgeStyle=orthogonalEdgeStyle;rounded=0;sketch=1;hachureGap=4;jiggle=2;curveFitting=1;orthogonalLoop=1;jettySize=auto;html=1;fontFamily=Architects Daughter;fontSource=https%3A%2F%2Ffonts.googleapis.com%2Fcss%3Ffamily%3DArchitects%2BDaughter;fontSize=16;" edge="1" parent="1" source="2deGAtWcqy3WrxDyDet4-49" target="2deGAtWcqy3WrxDyDet4-47">
          <mxGeometry relative="1" as="geometry">
            <Array as="points">
              <mxPoint x="230" y="881" />
              <mxPoint x="230" y="940" />
            </Array>
          </mxGeometry>
        </mxCell>
        <mxCell id="2deGAtWcqy3WrxDyDet4-49" value="neo.inbound-vendor.datas.raw-02a-normalize.trim" style="sketch=0;outlineConnect=0;fillColor=#fa6800;strokeColor=#C73500;dashed=0;verticalLabelPosition=bottom;verticalAlign=top;align=center;html=1;fontSize=12;fontStyle=0;aspect=fixed;pointerEvents=1;shape=mxgraph.aws4.redshift_streaming_ingestion;fontColor=#000000;" vertex="1" parent="1">
          <mxGeometry x="169.99999999999994" y="864" width="30.95" height="34" as="geometry" />
        </mxCell>
        <mxCell id="2deGAtWcqy3WrxDyDet4-50" style="edgeStyle=orthogonalEdgeStyle;rounded=0;sketch=1;hachureGap=4;jiggle=2;curveFitting=1;orthogonalLoop=1;jettySize=auto;html=1;fontFamily=Architects Daughter;fontSource=https%3A%2F%2Ffonts.googleapis.com%2Fcss%3Ffamily%3DArchitects%2BDaughter;fontSize=16;" edge="1" parent="1" source="2deGAtWcqy3WrxDyDet4-51" target="2deGAtWcqy3WrxDyDet4-49">
          <mxGeometry relative="1" as="geometry">
            <Array as="points">
              <mxPoint x="140" y="823" />
              <mxPoint x="140" y="881" />
            </Array>
          </mxGeometry>
        </mxCell>
        <mxCell id="2deGAtWcqy3WrxDyDet4-51" value="neo.inbound-vendor-wise.datas.raw-01-map.content" style="sketch=0;outlineConnect=0;fillColor=#fa6800;strokeColor=#C73500;dashed=0;verticalLabelPosition=bottom;verticalAlign=top;align=center;html=1;fontSize=12;fontStyle=0;aspect=fixed;pointerEvents=1;shape=mxgraph.aws4.redshift_streaming_ingestion;fontColor=#000000;" vertex="1" parent="1">
          <mxGeometry x="159.99999999999994" y="806" width="30.95" height="34" as="geometry" />
        </mxCell>
        <mxCell id="2deGAtWcqy3WrxDyDet4-52" style="edgeStyle=orthogonalEdgeStyle;rounded=0;sketch=1;hachureGap=4;jiggle=2;curveFitting=1;orthogonalLoop=1;jettySize=auto;html=1;fontFamily=Architects Daughter;fontSource=https%3A%2F%2Ffonts.googleapis.com%2Fcss%3Ffamily%3DArchitects%2BDaughter;fontSize=16;" edge="1" parent="1" source="2deGAtWcqy3WrxDyDet4-54" target="2deGAtWcqy3WrxDyDet4-51">
          <mxGeometry relative="1" as="geometry">
            <Array as="points">
              <mxPoint x="220" y="767" />
              <mxPoint x="220" y="823" />
            </Array>
          </mxGeometry>
        </mxCell>
        <mxCell id="2deGAtWcqy3WrxDyDet4-53" value="" style="edgeStyle=orthogonalEdgeStyle;rounded=0;sketch=1;hachureGap=4;jiggle=2;curveFitting=1;orthogonalLoop=1;jettySize=auto;html=1;fontFamily=Architects Daughter;fontSource=https%3A%2F%2Ffonts.googleapis.com%2Fcss%3Ffamily%3DArchitects%2BDaughter;fontSize=16;" edge="1" parent="1" source="2deGAtWcqy3WrxDyDet4-54" target="2deGAtWcqy3WrxDyDet4-51">
          <mxGeometry relative="1" as="geometry" />
        </mxCell>
        <mxCell id="2deGAtWcqy3WrxDyDet4-54" value="neo.inbound-vendor-p48.datas.raw-01-map.content" style="sketch=0;outlineConnect=0;fillColor=#fa6800;strokeColor=#C73500;dashed=0;verticalLabelPosition=bottom;verticalAlign=top;align=center;html=1;fontSize=12;fontStyle=0;aspect=fixed;pointerEvents=1;shape=mxgraph.aws4.redshift_streaming_ingestion;fontColor=#000000;" vertex="1" parent="1">
          <mxGeometry x="159.99999999999991" y="750" width="30.95" height="34" as="geometry" />
        </mxCell>
        <mxCell id="2deGAtWcqy3WrxDyDet4-55" style="edgeStyle=orthogonalEdgeStyle;rounded=0;sketch=1;hachureGap=4;jiggle=2;curveFitting=1;orthogonalLoop=1;jettySize=auto;html=1;fontFamily=Architects Daughter;fontSource=https%3A%2F%2Ffonts.googleapis.com%2Fcss%3Ffamily%3DArchitects%2BDaughter;fontSize=16;" edge="1" parent="1" source="2deGAtWcqy3WrxDyDet4-56" target="2deGAtWcqy3WrxDyDet4-54">
          <mxGeometry relative="1" as="geometry" />
        </mxCell>
        <mxCell id="2deGAtWcqy3WrxDyDet4-56" value="neo.inbound-vendor.datas.raw" style="sketch=0;outlineConnect=0;fillColor=#fa6800;strokeColor=#C73500;dashed=0;verticalLabelPosition=bottom;verticalAlign=top;align=center;html=1;fontSize=12;fontStyle=0;aspect=fixed;pointerEvents=1;shape=mxgraph.aws4.redshift_streaming_ingestion;fontColor=#000000;" vertex="1" parent="1">
          <mxGeometry x="159.99999999999994" y="690" width="30.95" height="34" as="geometry" />
        </mxCell>
        <mxCell id="2deGAtWcqy3WrxDyDet4-57" value="OK" style="edgeStyle=orthogonalEdgeStyle;rounded=0;sketch=1;hachureGap=4;jiggle=2;curveFitting=1;orthogonalLoop=1;jettySize=auto;html=1;fontFamily=Architects Daughter;fontSource=https%3A%2F%2Ffonts.googleapis.com%2Fcss%3Ffamily%3DArchitects%2BDaughter;fontSize=16;" edge="1" parent="1" source="2deGAtWcqy3WrxDyDet4-60" target="2deGAtWcqy3WrxDyDet4-61">
          <mxGeometry relative="1" as="geometry" />
        </mxCell>
        <mxCell id="2deGAtWcqy3WrxDyDet4-58" style="edgeStyle=orthogonalEdgeStyle;rounded=0;sketch=1;hachureGap=4;jiggle=2;curveFitting=1;orthogonalLoop=1;jettySize=auto;html=1;fontFamily=Architects Daughter;fontSource=https%3A%2F%2Ffonts.googleapis.com%2Fcss%3Ffamily%3DArchitects%2BDaughter;fontSize=16;" edge="1" parent="1" source="2deGAtWcqy3WrxDyDet4-60" target="2deGAtWcqy3WrxDyDet4-63">
          <mxGeometry relative="1" as="geometry" />
        </mxCell>
        <mxCell id="2deGAtWcqy3WrxDyDet4-59" value="NOK" style="edgeLabel;html=1;align=center;verticalAlign=middle;resizable=0;points=[];fontSize=20;fontFamily=Architects Daughter;" vertex="1" connectable="0" parent="2deGAtWcqy3WrxDyDet4-58">
          <mxGeometry x="-0.061" relative="1" as="geometry">
            <mxPoint as="offset" />
          </mxGeometry>
        </mxCell>
        <mxCell id="2deGAtWcqy3WrxDyDet4-60" value="neo.inbound-vendor.datas.raw-04-cleanup" style="sketch=0;outlineConnect=0;fillColor=#fa6800;strokeColor=#C73500;dashed=0;verticalLabelPosition=bottom;verticalAlign=top;align=center;html=1;fontSize=12;fontStyle=0;aspect=fixed;pointerEvents=1;shape=mxgraph.aws4.redshift_streaming_ingestion;fontColor=#000000;" vertex="1" parent="1">
          <mxGeometry x="479.99999999999994" y="1030" width="30.95" height="34" as="geometry" />
        </mxCell>
        <mxCell id="2deGAtWcqy3WrxDyDet4-61" value="&lt;font style=&quot;font-size: 15px;&quot;&gt;Index&lt;/font&gt;" style="shape=cylinder3;whiteSpace=wrap;html=1;boundedLbl=1;backgroundOutline=1;size=15;sketch=1;hachureGap=4;jiggle=2;curveFitting=1;fontFamily=Architects Daughter;fontSource=https%3A%2F%2Ffonts.googleapis.com%2Fcss%3Ffamily%3DArchitects%2BDaughter;fontSize=20;fillColor=#60a917;strokeColor=#2D7600;fontColor=#ffffff;" vertex="1" parent="1">
          <mxGeometry x="423.47" y="894" width="60" height="80" as="geometry" />
        </mxCell>
        <mxCell id="2deGAtWcqy3WrxDyDet4-62" style="edgeStyle=orthogonalEdgeStyle;rounded=0;sketch=1;hachureGap=4;jiggle=2;curveFitting=1;orthogonalLoop=1;jettySize=auto;html=1;entryX=0.5;entryY=1;entryDx=0;entryDy=0;entryPerimeter=0;fontFamily=Architects Daughter;fontSource=https%3A%2F%2Ffonts.googleapis.com%2Fcss%3Ffamily%3DArchitects%2BDaughter;fontSize=16;" edge="1" parent="1" source="2deGAtWcqy3WrxDyDet4-63" target="2deGAtWcqy3WrxDyDet4-64">
          <mxGeometry relative="1" as="geometry" />
        </mxCell>
        <mxCell id="2deGAtWcqy3WrxDyDet4-63" value="&lt;span style=&quot;border-color: var(--border-color); font-family: Helvetica;&quot;&gt;&lt;b&gt;Ingest pipeline&lt;/b&gt;&lt;br&gt;EMEA_inbound_visibility_dlq&lt;br&gt;&lt;/span&gt;&lt;font face=&quot;Helvetica&quot;&gt;neo.inbound-&lt;/font&gt;vendor&lt;font face=&quot;Helvetica&quot;&gt;.datas.dlq&lt;/font&gt;" style="sketch=0;outlineConnect=0;fontColor=#232F3E;gradientColor=none;fillColor=#4D27AA;strokeColor=none;dashed=0;verticalLabelPosition=bottom;verticalAlign=top;align=center;html=1;fontSize=12;fontStyle=0;aspect=fixed;pointerEvents=1;shape=mxgraph.aws4.redshift_streaming_ingestion;hachureGap=4;jiggle=2;curveFitting=1;fontFamily=Architects Daughter;fontSource=https%3A%2F%2Ffonts.googleapis.com%2Fcss%3Ffamily%3DArchitects%2BDaughter;" vertex="1" parent="1">
          <mxGeometry x="600" y="924" width="45.51" height="50" as="geometry" />
        </mxCell>
        <mxCell id="2deGAtWcqy3WrxDyDet4-64" value="&lt;font style=&quot;font-size: 15px;&quot;&gt;Index&lt;/font&gt;" style="shape=cylinder3;whiteSpace=wrap;html=1;boundedLbl=1;backgroundOutline=1;size=15;sketch=1;hachureGap=4;jiggle=2;curveFitting=1;fontFamily=Architects Daughter;fontSource=https%3A%2F%2Ffonts.googleapis.com%2Fcss%3Ffamily%3DArchitects%2BDaughter;fontSize=20;fillColor=#60a917;strokeColor=#2D7600;fontColor=#ffffff;" vertex="1" parent="1">
          <mxGeometry x="600" y="760" width="60" height="80" as="geometry" />
        </mxCell>
        <mxCell id="2deGAtWcqy3WrxDyDet4-65" value="&lt;font style=&quot;font-size: 13px;&quot;&gt;&lt;b&gt;data-neo.inbound.&lt;/b&gt;vendor&lt;b&gt;-raw&lt;/b&gt;&lt;/font&gt;" style="text;html=1;strokeColor=none;fillColor=none;align=center;verticalAlign=middle;whiteSpace=wrap;rounded=0;fontSize=20;fontFamily=Architects Daughter;" vertex="1" parent="1">
          <mxGeometry x="379.47" y="864" width="170.53" height="30" as="geometry" />
        </mxCell>
        <mxCell id="2deGAtWcqy3WrxDyDet4-66" value="&lt;font style=&quot;font-size: 13px;&quot;&gt;&lt;b&gt;data-neo.inbound.&lt;/b&gt;vendor&lt;b&gt;-raw.dlq&lt;/b&gt;&lt;/font&gt;" style="text;html=1;strokeColor=none;fillColor=none;align=center;verticalAlign=middle;whiteSpace=wrap;rounded=0;fontSize=20;fontFamily=Architects Daughter;" vertex="1" parent="1">
          <mxGeometry x="530" y="730" width="200" height="30" as="geometry" />
        </mxCell>
        <mxCell id="2deGAtWcqy3WrxDyDet4-67" style="edgeStyle=orthogonalEdgeStyle;rounded=0;sketch=1;hachureGap=4;jiggle=2;curveFitting=1;orthogonalLoop=1;jettySize=auto;html=1;fontFamily=Architects Daughter;fontSource=https%3A%2F%2Ffonts.googleapis.com%2Fcss%3Ffamily%3DArchitects%2BDaughter;fontSize=16;" edge="1" parent="1" source="2deGAtWcqy3WrxDyDet4-68" target="2deGAtWcqy3WrxDyDet4-6">
          <mxGeometry relative="1" as="geometry" />
        </mxCell>
        <mxCell id="2deGAtWcqy3WrxDyDet4-68" value="Wise files" style="image;html=1;image=img/lib/clip_art/general/Full_Folder_128x128.png;sketch=1;hachureGap=4;jiggle=2;curveFitting=1;fontFamily=Architects Daughter;fontSource=https%3A%2F%2Ffonts.googleapis.com%2Fcss%3Ffamily%3DArchitects%2BDaughter;fontSize=20;" vertex="1" parent="1">
          <mxGeometry x="70" y="170" width="30" height="42.5" as="geometry" />
        </mxCell>
        <mxCell id="2deGAtWcqy3WrxDyDet4-69" value="" style="whiteSpace=wrap;html=1;shape=mxgraph.basic.document;sketch=1;hachureGap=4;jiggle=2;curveFitting=1;fontFamily=Architects Daughter;fontSource=https%3A%2F%2Ffonts.googleapis.com%2Fcss%3Ffamily%3DArchitects%2BDaughter;fontSize=20;" vertex="1" parent="1">
          <mxGeometry x="270" y="170" width="20" height="30" as="geometry" />
        </mxCell>
      </root>
    </mxGraphModel>
  </diagram>
</mxfile>
